<?xml version="1.0" encoding="iso-8859-1"?>
<!-- Generator: Adobe Illustrator 19.0.0, SVG Export Plug-In . SVG Version: 6.00 Build 0)  -->
<svg version="1.1" id="Layer_1" xmlns="http://www.w3.org/2000/svg" xmlns:xlink="http://www.w3.org/1999/xlink" x="0px" y="0px"
	 viewBox="0 0 398.469 398.469" style="enable-background:new 0 0 398.469 398.469;" xml:space="preserve">
<g>
	<g>
		<path d="M391.683,218.872l-54.903-54.903c-3.792-3.791-7.729-5.714-11.702-5.714c-5.139,0-8.542,2.911-10.426,6.937v-50.139
			c0-15.956-12.981-28.938-28.938-28.938H28.938C12.981,86.115,0,99.096,0,115.052v6.088c0,0.003,0,0.005,0,0.008v154.404
			c0,15.956,12.981,28.938,28.938,28.938h256.775c12.422,0,23.039-7.869,27.134-18.883v11.119c0,7.778,3.782,15.627,12.23,15.628
			c3.973,0,7.91-1.923,11.702-5.714l54.903-54.903c4.377-4.377,6.787-10.213,6.787-16.433
			C398.469,229.084,396.06,223.248,391.683,218.872z M15,115.052c0-7.686,6.252-13.938,13.938-13.938h256.775
			c7.686,0,13.938,6.252,13.938,13.938v1.982l-142.326,91.049L15,117.034V115.052z M299.651,134.841v55.716h-60.58
			c-9.174,0-17.122,5.345-20.897,13.083l-13.033-8.338L299.651,134.841z M15,134.841l94.511,60.461L15,255.763V134.841z
			 M285.713,289.49H28.938c-7.686,0-13.938-6.252-13.938-13.938v-1.983l108.428-69.364l29.855,19.1
			c1.232,0.788,2.637,1.183,4.042,1.183s2.81-0.395,4.042-1.183l29.855-19.099l24.61,15.742v36.866
			c0,12.814,10.425,23.239,23.239,23.239h59.82C297.014,285.534,291.822,289.49,285.713,289.49z M381.076,241.13l-53.229,53.229
			v-21.806c0-4.143-3.358-7.5-7.5-7.5h-81.276c-4.543,0-8.239-3.696-8.239-8.239v-43.02c0-4.543,3.696-8.238,8.239-8.238h81.276
			c4.142,0,7.5-3.357,7.5-7.5V176.25l53.229,53.229c1.543,1.543,2.394,3.612,2.394,5.825
			C383.47,237.516,382.62,239.586,381.076,241.13z"/>
	</g>
</g>
<g>
</g>
<g>
</g>
<g>
</g>
<g>
</g>
<g>
</g>
<g>
</g>
<g>
</g>
<g>
</g>
<g>
</g>
<g>
</g>
<g>
</g>
<g>
</g>
<g>
</g>
<g>
</g>
<g>
</g>
</svg>
